<svg width="21" height="20" viewBox="0 0 21 20" fill="none" xmlns="http://www.w3.org/2000/svg">
<path d="M10.333 0C13.05 0 13.389 0.00999994 14.455 0.0599999C15.52 0.11 16.245 0.277 16.883 0.525C17.543 0.779 18.099 1.123 18.655 1.678C19.1635 2.1779 19.557 2.78259 19.808 3.45C20.055 4.087 20.223 4.813 20.273 5.878C20.32 6.944 20.333 7.283 20.333 10C20.333 12.717 20.323 13.056 20.273 14.122C20.223 15.187 20.055 15.912 19.808 16.55C19.5577 17.2178 19.1641 17.8226 18.655 18.322C18.155 18.8303 17.5503 19.2238 16.883 19.475C16.246 19.722 15.52 19.89 14.455 19.94C13.389 19.987 13.05 20 10.333 20C7.61601 20 7.27701 19.99 6.21101 19.94C5.14601 19.89 4.42101 19.722 3.78301 19.475C3.11533 19.2245 2.51054 18.8309 2.01101 18.322C1.50241 17.8222 1.10894 17.2175 0.858008 16.55C0.610008 15.913 0.443008 15.187 0.393008 14.122C0.346008 13.056 0.333008 12.717 0.333008 10C0.333008 7.283 0.343008 6.944 0.393008 5.878C0.443008 4.812 0.610008 4.088 0.858008 3.45C1.10824 2.78218 1.50181 2.17732 2.01101 1.678C2.51068 1.16923 3.11544 0.775729 3.78301 0.525C4.42101 0.277 5.14501 0.11 6.21101 0.0599999C7.27701 0.0129999 7.61601 0 10.333 0ZM10.333 5C9.00693 5 7.73516 5.52678 6.79747 6.46447C5.85979 7.40215 5.33301 8.67392 5.33301 10C5.33301 11.3261 5.85979 12.5979 6.79747 13.5355C7.73516 14.4732 9.00693 15 10.333 15C11.6591 15 12.9309 14.4732 13.8685 13.5355C14.8062 12.5979 15.333 11.3261 15.333 10C15.333 8.67392 14.8062 7.40215 13.8685 6.46447C12.9309 5.52678 11.6591 5 10.333 5ZM16.833 4.75C16.833 4.41848 16.7013 4.10054 16.4669 3.86612C16.2325 3.6317 15.9145 3.5 15.583 3.5C15.2515 3.5 14.9335 3.6317 14.6991 3.86612C14.4647 4.10054 14.333 4.41848 14.333 4.75C14.333 5.08152 14.4647 5.39946 14.6991 5.63388C14.9335 5.8683 15.2515 6 15.583 6C15.9145 6 16.2325 5.8683 16.4669 5.63388C16.7013 5.39946 16.833 5.08152 16.833 4.75ZM10.333 7C11.1287 7 11.8917 7.31607 12.4543 7.87868C13.0169 8.44129 13.333 9.20435 13.333 10C13.333 10.7956 13.0169 11.5587 12.4543 12.1213C11.8917 12.6839 11.1287 13 10.333 13C9.53736 13 8.7743 12.6839 8.21169 12.1213C7.64908 11.5587 7.33301 10.7956 7.33301 10C7.33301 9.20435 7.64908 8.44129 8.21169 7.87868C8.7743 7.31607 9.53736 7 10.333 7Z" fill="white"/>
</svg>