
<svg width="25" height="24" viewBox="0 0 25 24" fill="none" xmlns="http://www.w3.org/2000/svg">
<g clip-path="url(#clip0_12_1913)">
<path d="M24.62 4.5696C23.7215 4.9652 22.7696 5.22634 21.795 5.3446C22.8211 4.72785 23.5894 3.76064 23.958 2.6216C23.007 3.1766 21.953 3.5806 20.831 3.8056C20.0908 3.01403 19.1099 2.48902 18.0406 2.3121C16.9714 2.13518 15.8737 2.31625 14.9179 2.82719C13.9622 3.33813 13.2019 4.15035 12.755 5.13772C12.3082 6.1251 12.2 7.23237 12.447 8.2876C8.35699 8.0946 4.73399 6.1296 2.30699 3.1616C1.86579 3.91141 1.63566 4.76662 1.64099 5.6366C1.64099 7.3466 2.51099 8.8496 3.82899 9.7326C3.04785 9.70773 2.28396 9.49653 1.60099 9.1166V9.1766C1.60055 10.313 1.99326 11.4145 2.7125 12.2944C3.43174 13.1742 4.43321 13.7781 5.54699 14.0036C4.82529 14.197 4.06941 14.226 3.33499 14.0886C3.65111 15.0666 4.26466 15.9215 5.09001 16.5341C5.91536 17.1467 6.91134 17.4863 7.93899 17.5056C6.19852 18.8715 4.04947 19.6129 1.83699 19.6106C1.44699 19.6106 1.05799 19.5876 0.666992 19.5436C2.9227 20.9879 5.54551 21.7546 8.22399 21.7526C17.277 21.7526 22.222 14.2566 22.222 7.7676C22.222 7.5576 22.222 7.3476 22.207 7.1376C23.173 6.44246 24.0062 5.57942 24.667 4.5896L24.62 4.5696Z" fill="white"/>
</g>
<defs>
<clipPath id="clip0_12_1913">
<rect width="24" height="24" fill="white" transform="translate(0.666992)"/>
</clipPath>
</defs>
</svg>